<svg width="24" height="24" viewBox="0 0 24 24" fill="none" xmlns="http://www.w3.org/2000/svg">
<path d="M21.074 12.154C21.2718 12.1737 21.4537 12.2712 21.5797 12.4249C21.7057 12.5787 21.7655 12.7762 21.746 12.974C21.256 17.904 17.088 21.75 12.022 21.75C9.298 21.75 6.658 20.817 4.784 19.07L3 20.85C2.80109 20.85 2.61032 20.771 2.46967 20.6303C2.32902 20.4897 2.25 20.2989 2.25 20.1V16.14C2.25 15.426 2.83 14.85 3.541 14.85H7.511C7.70991 14.85 7.90068 14.929 8.04133 15.0697C8.18198 15.2103 8.261 15.4011 8.261 15.6L5.848 18.007C7.406 19.44 9.628 20.25 12.022 20.25C16.312 20.25 19.839 16.992 20.254 12.826C20.2737 12.6282 20.3712 12.4463 20.5249 12.3203C20.6787 12.1943 20.8762 12.1345 21.074 12.154ZM2.254 11.026C2.744 6.096 6.912 2.25 11.978 2.25C14.702 2.25 17.342 3.183 19.216 4.93L21 3.15C21.1989 3.15 21.3897 3.22902 21.5303 3.36967C21.671 3.51032 21.75 3.70109 21.75 3.9V7.86C21.75 8.574 21.17 9.15 20.459 9.15H16.489C16.2901 9.15 16.0993 9.07098 15.9587 8.93033C15.818 8.78968 15.739 8.59891 15.739 8.4L18.152 5.992C16.594 4.56 14.372 3.75 11.978 3.75C7.688 3.75 4.161 7.008 3.746 11.174C3.7391 11.2742 3.71216 11.3719 3.66678 11.4614C3.6214 11.551 3.55851 11.6305 3.48183 11.6953C3.40515 11.7601 3.31624 11.8088 3.22038 11.8386C3.12451 11.8684 3.02364 11.8787 2.92374 11.8688C2.82384 11.8589 2.72695 11.829 2.63881 11.7809C2.55066 11.7329 2.47306 11.6676 2.41061 11.589C2.34815 11.5105 2.30211 11.4201 2.2752 11.3234C2.2483 11.2267 2.24109 11.1256 2.254 11.026Z" fill="white"/>
</svg>
